<svg class="unified360-icon unified360-valign" xmlns="http://www.w3.org/2000/svg" viewBox="0 0 20 20"><path d="M16.75 20H3.25A3.26 3.26 0 0 1 0 16.75V3.25A3.26 3.26 0 0 1 3.25 0h13.5A3.26 3.26 0 0 1 20 3.25v13.5A3.26 3.26 0 0 1 16.75 20zM3.25 1.4A1.85 1.85 0 0 0 1.4 3.25v13.5a1.85 1.85 0 0 0 1.85 1.85h13.5a1.85 1.85 0 0 0 1.85-1.85V3.25a1.85 1.85 0 0 0-1.85-1.85zm12.29 13.44V9a.7.7 0 0 0-1.4 0v5.86a.7.7 0 0 0 1.4 0zm-4.84 0V5.16a.7.7 0 0 0-1.4 0v9.68a.7.7 0 0 0 1.4 0zm-4.84 0v-4.08a.7.7 0 1 0-1.4 0v4.08a.7.7 0 1 0 1.4 0z" data-name="Layer 1"></path></svg>