<svg class="unified360-icon" xmlns="http://www.w3.org/2000/svg" viewBox="0 0 20 20"><g data-name="Layer 2"><path d="M19.3 6.2h-8.6V.7A.7.7 0 0 0 10 0H.7a.7.7 0 0 0-.7.7v18.6a.7.7 0 0 0 .7.7h18.6a.7.7 0 0 0 .7-.7V6.9a.7.7 0 0 0-.7-.7zM1.4 1.4h7.9v17.2H7.54v-5.28a.92.92 0 0 0-.92-.92H4a.92.92 0 0 0-.92.92v5.28H1.4zm3.08 17.2v-4.8h1.66v4.8zm14.12 0h-7.9v-11h7.9z"></path><path d="M3.36 9.81h4a.7.7 0 0 0 0-1.4h-4a.7.7 0 0 0 0 1.4zM12.66 16h4a.7.7 0 1 0 0-1.4h-4a.7.7 0 0 0 0 1.4zM3.36 5.83h4a.7.7 0 1 0 0-1.4h-4a.7.7 0 0 0 0 1.4zM12.66 12h4a.7.7 0 0 0 0-1.4h-4a.7.7 0 0 0 0 1.4z"></path></g></svg>