<svg class="unified360-icon unified360-valign" xmlns="http://www.w3.org/2000/svg" viewBox="0 0 20 20"><path d="M17.3 1H2.7A2.7 2.7 0 0 0 0 3.7v12.6A2.7 2.7 0 0 0 2.7 19h14.6a2.7 2.7 0 0 0 2.7-2.7V3.7A2.7 2.7 0 0 0 17.3 1zm1.3 15.3a1.3 1.3 0 0 1-1.3 1.3H2.7a1.3 1.3 0 0 1-1.3-1.3V3.7a1.3 1.3 0 0 1 1.3-1.3h14.6a1.3 1.3 0 0 1 1.3 1.3zM8 14.3a.7.7 0 0 1-.7.7H3.7a.7.7 0 0 1 0-1.4h3.6a.7.7 0 0 1 .7.7zm4-2.84a.7.7 0 0 1-.7.7H3.7a.7.7 0 0 1 0-1.4h7.6a.7.7 0 0 1 .7.7zm5.37-4.94a2.87 2.87 0 0 1-5.73 0 .7.7 0 0 1 1.4 0 1.47 1.47 0 1 0 1.46-1.47.7.7 0 1 1 0-1.4 2.88 2.88 0 0 1 2.87 2.87z" data-name="Layer 1"></path></svg>