<svg xmlns="http://www.w3.org/2000/svg" width="32" height="32" viewBox="0 0 32 32" class="nav-icon" focusable="false"><path d="M.267 12.874V10.23a3.824 3.824 0 013.818-3.831h23.831a3.825 3.825 0 013.818 3.831v2.644l-1.018.563c-1.076.595-1.736 1.665-1.736 2.83s.66 2.235 1.736 2.83l1.018.563v2.644a3.824 3.824 0 01-3.818 3.831H4.085a3.825 3.825 0 01-3.818-3.831V19.66l1.018-.563c1.076-.595 1.736-1.665 1.736-2.83s-.66-2.235-1.736-2.83l-1.018-.563zm4.72 3.393c0 1.948-1.107 3.648-2.753 4.558v1.478c0 1.026.829 1.857 1.851 1.857h23.831a1.855 1.855 0 001.851-1.857v-1.478c-1.646-.91-2.753-2.61-2.753-4.558s1.107-3.648 2.753-4.558v-1.478a1.854 1.854 0 00-1.851-1.857H4.085a1.855 1.855 0 00-1.851 1.857v1.478c1.646.91 2.753 2.61 2.753 4.558zm5.981-5.14h10.065a3.825 3.825 0 013.818 3.831v2.6a3.824 3.824 0 01-3.818 3.831H10.968a3.825 3.825 0 01-3.818-3.831v-2.6a3.824 3.824 0 013.818-3.831zm0 1.973a1.855 1.855 0 00-1.851 1.857v2.6c0 1.026.829 1.857 1.851 1.857h10.065a1.855 1.855 0 001.851-1.857v-2.6a1.854 1.854 0 00-1.851-1.857H10.968z"></path></svg>