<svg class="unified360-icon" version="1.1" id="a" xmlns="http://www.w3.org/2000/svg" xmlns:xlink="http://www.w3.org/1999/xlink" x="0px" y="0px" viewBox="0 0 20 20" style="enable-background:new 0 0 20 20;" xml:space="preserve">
<g>
	<path d="M7.6,3.4c-0.3,0.3-0.3,0.7,0,1c0.3,0.3,0.7,0.3,1,0L10,2.9c0.3-0.3,0.3-0.7,0-1L8.6,0.5c-0.3-0.3-0.7-0.3-1,0
		c-0.3,0.3-0.3,0.7,0,1l0.3,0.3c-4,0.6-7,4.1-7,8.2c0,0.4,0.3,0.7,0.7,0.7c0.4,0,0.7-0.3,0.7-0.7c0-3.4,2.4-6.2,5.6-6.8L7.6,3.4z"></path>
	<path d="M15.4,12.9V7c0-0.4-0.3-0.7-0.7-0.7H6.1C5.7,6.3,5.4,6.6,5.4,7v7.5c0,0.3,0.2,0.5,0.4,0.6c0.3,0.1,0.6,0,0.8-0.2L8,13.6
		h6.6C15,13.6,15.4,13.3,15.4,12.9z M14,12.2H7.7c-0.2,0-0.4,0.1-0.5,0.2l-0.4,0.4V7.7H14V12.2z"></path>
	<path d="M19.2,9.9c0-0.4-0.3-0.7-0.7-0.7s-0.7,0.3-0.7,0.7c0,3.5-2.6,6.4-6,6.9l0.2-0.2c0.3-0.3,0.3-0.7,0-1c-0.3-0.3-0.7-0.3-1,0
		L9.6,17c-0.3,0.3-0.3,0.7,0,1l1.4,1.4c0.3,0.3,0.7,0.3,1,0c0.3-0.3,0.3-0.7,0-1l-0.3-0.3C15.9,17.7,19.2,14.2,19.2,9.9z"></path>
</g>
</svg>